<svg version="1.1" id="图层_1" xmlns="http://www.w3.org/2000/svg" xmlns:xlink="http://www.w3.org/1999/xlink" width="18px" height="18px" viewBox="0 0 400 400" xml:space="preserve">
  <style type="text/css">
    .st0{fill:#CCCCCC;} /* Gray color */
    .st1{fill:#FFFFFF;} /* White color */
    .st2{fill:#CCCCCC;} /* Gray color */
  </style>
  <g>
    <g>
      <path class="st0" d="M200,9.2l165.2,95.4v190.8L200,390.8L34.8,295.4V104.6L200,9.2 M200,4L30.3,102v196L200,396l169.7-98V102L200,4L200,4z"/>
    </g>
    <polygon class="st1" points="56.9,114.3 200,31.6 343.1,114.3 200,196.9"/>
    <g>
      <path class="st0" d="M54.2,118.9v165.2l143.1,82.6V201.6L54.2,118.9z M152.4,306.3l-0.1-58.2L131.4,294l-18-10.6l-9.7-63.8l-11.1,51.6l-24.9-14.8l20.2-74l31.7,18.6l7.1,45l14.8-32.2l31,18.2l4.3,88.6L152.4,306.3z"/>
    </g>
    <g>
      <path class="st2" d="M202.7,201.6v165.2l143.1-82.6V118.9L202.7,201.6z M315.5,257.7c-0.8,11.1-5.9,22.8-13.9,30.1c-2.9,2.8-6.6,5.4-10.8,7.8c-1.7,0.9-3.5,1.9-5.7,2.9l-4.9,2.3l-3.8,1.5c-5,2-10.6,3.9-16.6,5.7c-2.3,0.7-4.7,1.3-7.1,2l-9.4,2.9l-0.5-24l14.8-3.7c0,0,5.8-1.5,8.5-2.3c3.2-1,6-2,8.6-3c9.3-3.7,14.6-8,15.9-12.8c0.8-2.1,0.7-3.7-0.3-5c-1-1.5-2.9-2.2-5.8-2.4c-1.3,0-2.8,0-4.7,0.2l-5.6,0.6c-2.4,0.4-4.6,0.7-6.6,0.9c-2.5,0.2-4.8,0.3-6.9,0.3c-5.1-0.1-9.2-0.9-12.1-2.6c-2.8-1.7-4.6-4.5-5.5-8.3c-0.6-2.7-0.8-6-0.5-9.9c0.8-11.2,5.2-20.4,13.2-27.7c3-2.8,6.6-5.4,10.8-7.9c1.7-0.9,3.5-1.9,5.7-2.9l5.5-2.6l3.7-1.5c4.2-1.7,8.9-3.3,14-4.9l6.2-1.8l7.2-2l0.8,20.9c-2.8,0.4-6.3,1.2-10.5,2.4c-5.4,1.4-10.4,3-14.7,4.8c-9.7,3.9-13,7.3-14.6,12.3c-0.6,2.1-0.6,3.9-0.3,5.6c0.3,2,0.2,2.6,4.6,3.1c1.3,0.1,3,0,5-0.1l12.8-1.4c2.5-0.2,4.7-0.3,6.6-0.3c4.7,0.1,8.3,0.9,10.8,2.5c2.9,1.6,4.8,4.4,5.8,8.2C315.6,250.8,315.8,254.1,315.5,257.7z"/>
    </g>
  </g>
</svg>
